<svg id="icons_2" xmlns="http://www.w3.org/2000/svg" xmlns:xlink="http://www.w3.org/1999/xlink" width="319.8" height="181.548" viewBox="0 0 319.8 181.548">
  <defs>
    <clipPath id="clip-path">
      <rect id="Rectangle_55" data-name="Rectangle 55" width="34.211" height="34.289" fill="none"/>
    </clipPath>
    <clipPath id="clip-path-2">
      <path id="Path_466" data-name="Path 466" d="M23.271,28.2l-3.023-1.091L17.519,25.3l-2.091-2.682L14.864,19.3V16.982l1.73-4.025L18.625,10l1.032-1.145,2.507-1.392,3.945-.455,3.8.776,3.6,2.389,1.9,3.154.737,3.658-.258,3.5-1.216,3.266L33.3,25.777,30.779,27.6l-2.236.947-2.749.222Zm-.722-23.54-3.85,2.2-.922.6L15.758,9.986,14.2,12.838l-.918,2.593-.526,2.209-.248,3.3.529,2.033,1.339,2.771,2.7,2.458,2.654,1.385L23.6,30.632l2.692.65h2.617l3.245-1.219,3.555-2.624,1.827-3.473,1.254-3.488V17.02l-1-4.8L35.39,8.178,31.27,5.269,26.4,4.493Z" transform="translate(-12.505 -4.493)" fill="#c33be3"/>
    </clipPath>
    <clipPath id="clip-path-3">
      <path id="Path_469" data-name="Path 469" d="M139.311,4.716l-2.182,2.475-.9,2.549.387,1.5,1.455.479,1.475.076,1.37-.691.773-1.857-.593-3.13-.456-1.689Z" transform="translate(-136.225 -4.429)" fill="#c33be3"/>
    </clipPath>
    <clipPath id="clip-path-4">
      <path id="Path_472" data-name="Path 472" d="M225.074,17.118l3.826,9.741,2.364,2.514,2.573.548h1.758l2.9-1.515.308-2.629-1.172-3.695-2.686-2.119-3.468-1.749-5.6-1.1Z" transform="translate(-225.074 -17.118)" fill="#c33be3"/>
    </clipPath>
    <clipPath id="clip-path-5">
      <rect id="Rectangle_56" data-name="Rectangle 56" width="23.37" height="34.278" fill="none"/>
    </clipPath>
  </defs>
  <g id="Group_42" data-name="Group 42" transform="translate(282.841 49.864)">
    <g id="Group_41" data-name="Group 41" transform="translate(0 0)" clip-path="url(#clip-path)">
      <path id="Path_410" data-name="Path 410" d="M17.106,0A17.144,17.144,0,1,0,34.211,17.144,17.125,17.125,0,0,0,17.106,0" transform="translate(0 0)" fill="#f2f2f2"/>
      <path id="Path_411" data-name="Path 411" d="M0,17.144A17.125,17.125,0,0,0,17.106,34.289V0A17.125,17.125,0,0,0,0,17.144Z" transform="translate(0 0)" fill="#f2f2f2"/>
      <path id="Path_412" data-name="Path 412" d="M17.1,0V34.289A17.144,17.144,0,0,0,17.1,0" transform="translate(0.006 0)" fill="#d6d7d8"/>
      <path id="Path_413" data-name="Path 413" d="M26.264,14.781a.717.717,0,0,0-.37-1.318H19.683L17.815,7.814a.717.717,0,0,0-.7-.578h-.008a.716.716,0,0,0-.693.577l-1.868,5.648H8.335a.717.717,0,0,0-.373,1.328l5,3.623-1.873,5.781a.241.241,0,0,0-.012.038v.011a.714.714,0,0,0,1.162.725l4.876-3.521,4.876,3.521.01-.006a.715.715,0,0,0,1.1-.89l-1.833-5.66,5-3.623Z" transform="translate(0.003 0.019)" fill="#6c75e2"/>
      <path id="Path_414" data-name="Path 414" d="M17.105,1.347A15.733,15.733,0,1,0,32.8,17.085v-.006A15.733,15.733,0,0,0,17.105,1.347m0,30.463A14.73,14.73,0,1,1,31.8,17.08a14.714,14.714,0,0,1-14.7,14.73" transform="translate(0 0.003)" fill="#ee907a"/>
    </g>
  </g>
  <path id="Path_415" data-name="Path 415" d="M17.513,37.087a14.839,14.839,0,0,1-9.941-25.82,1.281,1.281,0,1,1,1.719,1.9,12.24,12.24,0,1,0,16.431-.011,1.281,1.281,0,0,1,1.718-1.9,14.84,14.84,0,0,1-9.926,25.835" transform="translate(-1.238 -4.389)" fill="#d4bdba"/>
  <path id="Path_416" data-name="Path 416" d="M22.4,10.912a1.277,1.277,0,0,1-.864-.336L15.239,4.8A1.285,1.285,0,0,1,15.1,3.064L17.109.491A1.279,1.279,0,0,1,18.116,0h8.559a1.279,1.279,0,0,1,1.007.491l2.013,2.573A1.284,1.284,0,0,1,29.551,4.8l-6.292,5.775a1.276,1.276,0,0,1-.864.336m-4.555-7.2L22.4,7.892l4.553-4.18-.9-1.147H18.738Z" transform="translate(-6.121 0)" fill="#f78f7d"/>
  <path id="Path_417" data-name="Path 417" d="M129.742,45.151a.854.854,0,0,1-.853-.855V30.618a.853.853,0,1,1,1.706,0V44.3a.854.854,0,0,1-.853.855" transform="translate(-59.576 -11.961)" fill="#d4bdba"/>
  <path id="Path_418" data-name="Path 418" d="M130.5,38.27a.855.855,0,0,1-.791-.534,4.13,4.13,0,0,1,5.178-5.189.854.854,0,0,1-.641,1.584,2.44,2.44,0,0,0-2.955,2.962.856.856,0,0,1-.47,1.114.841.841,0,0,1-.32.063" transform="translate(-59.811 -12.984)" fill="#d4bdba"/>
  <path id="Path_419" data-name="Path 419" d="M131.553,38.566a3.307,3.307,0,0,1-1.252-.239.855.855,0,0,1,.643-1.584,2.439,2.439,0,0,0,2.954-2.962.853.853,0,1,1,1.581-.644,3.946,3.946,0,0,1-1.016,4.172,4.174,4.174,0,0,1-2.91,1.257" transform="translate(-59.93 -13.102)" fill="#d4bdba"/>
  <path id="Path_420" data-name="Path 420" d="M124.481,43.725a.855.855,0,0,1-.791-1.177,4.2,4.2,0,0,0-5.135-5.146.855.855,0,0,1-.642-1.584,5.888,5.888,0,0,1,7.358,7.373.855.855,0,0,1-.791.534" transform="translate(-54.936 -14.26)" fill="#d4bdba"/>
  <path id="Path_421" data-name="Path 421" d="M122.864,44.181a5.952,5.952,0,0,1-4.145-1.8,5.6,5.6,0,0,1-1.46-5.911.853.853,0,1,1,1.581.644,4.2,4.2,0,0,0,5.134,5.146.854.854,0,0,1,.642,1.584,4.631,4.631,0,0,1-1.752.334" transform="translate(-54.752 -14.443)" fill="#d4bdba"/>
  <path id="Path_422" data-name="Path 422" d="M134.006,18.57h-3.839a1.281,1.281,0,0,1-1.279-1.282V9.166a5.129,5.129,0,0,1,5.118-5.129h6.4a1.282,1.282,0,0,1,0,2.565,1.282,1.282,0,0,0-1.279,1.282V13.44a5.129,5.129,0,0,1-5.117,5.13m-2.559-2.565h2.559a2.564,2.564,0,0,0,2.558-2.565V7.884a3.847,3.847,0,0,1,.219-1.282h-2.777a2.564,2.564,0,0,0-2.559,2.564Z" transform="translate(-59.576 -1.622)" fill="#f78f7d"/>
  <path id="Path_423" data-name="Path 423" d="M121.823,18.57h-3.838a5.129,5.129,0,0,1-5.118-5.129V7.884A1.282,1.282,0,0,0,111.589,6.6a1.282,1.282,0,0,1,0-2.565h6.4a5.129,5.129,0,0,1,5.117,5.13v8.121a1.281,1.281,0,0,1-1.28,1.282M115.207,6.6a3.85,3.85,0,0,1,.219,1.282v5.557a2.564,2.564,0,0,0,2.559,2.564h2.558V9.167A2.564,2.564,0,0,0,117.985,6.6Z" transform="translate(-52.084 -1.622)" fill="#f78f7d"/>
  <path id="Path_424" data-name="Path 424" d="M131.047,4.6a.851.851,0,0,1-.735-.42,4.837,4.837,0,0,0-6.574,0,.853.853,0,1,1-1.469-.868c.76-1.294,2.628-2.129,4.756-2.129s4,.836,4.756,2.129a.856.856,0,0,1-.3,1.171.846.846,0,0,1-.432.118" transform="translate(-56.859 -0.474)" fill="#f78f7d"/>
  <path id="Path_425" data-name="Path 425" d="M238.628,23.517H208.774a1.281,1.281,0,0,1-1.28-1.282V15.4a1.281,1.281,0,0,1,1.28-1.282h29.853a1.281,1.281,0,0,1,1.279,1.282v6.839a1.281,1.281,0,0,1-1.279,1.282m-28.574-2.565h27.294V16.678H210.054Z" transform="translate(-93.501 -5.672)" fill="#d4bdba"/>
  <path id="Path_426" data-name="Path 426" d="M235.516,42.644H214.193a3.847,3.847,0,0,1-3.839-3.847V26.829a1.28,1.28,0,1,1,2.559,0V38.8a1.282,1.282,0,0,0,1.28,1.282h21.323A1.282,1.282,0,0,0,236.8,38.8V26.829a1.279,1.279,0,1,1,2.558,0V38.8a3.846,3.846,0,0,1-3.838,3.847" transform="translate(-94.654 -10.266)" fill="#d4bdba"/>
  <path id="Path_427" data-name="Path 427" d="M234.074,38.624a.854.854,0,0,1-.853-.855V16.4a.853.853,0,1,1,1.706,0V37.769a.854.854,0,0,1-.853.855" transform="translate(-103.874 -6.246)" fill="#d4bdba"/>
  <path id="Path_428" data-name="Path 428" d="M227.349,7.8a1.276,1.276,0,0,1-.982-.459l-3.056-3.659a2.216,2.216,0,0,0-1.475-.584,2.781,2.781,0,0,0-2.493,2.992,1.28,1.28,0,1,1-2.559,0A5.328,5.328,0,0,1,221.837.536a4.79,4.79,0,0,1,3.272,1.32,1.238,1.238,0,0,1,.109.115L228.33,5.7a1.282,1.282,0,0,1-.981,2.105" transform="translate(-97.247 -0.215)" fill="#f78f7d"/>
  <path id="Path_429" data-name="Path 429" d="M233.785,7.8a1.273,1.273,0,0,1-.821-.3A1.285,1.285,0,0,1,232.8,5.7l3.112-3.726a1.228,1.228,0,0,1,.109-.115A4.79,4.79,0,0,1,239.3.536a5.328,5.328,0,0,1,5.052,5.557,1.28,1.28,0,1,1-2.559,0A2.781,2.781,0,0,0,239.3,3.1a2.216,2.216,0,0,0-1.475.584l-3.056,3.659a1.276,1.276,0,0,1-.982.459" transform="translate(-103.586 -0.215)" fill="#f78f7d"/>
  <path id="Path_430" data-name="Path 430" d="M133.484,13.465a7.286,7.286,0,0,0-1.822.231l0,.01a.517.517,0,0,0-.418.5.525.525,0,0,0,.524.525.5.5,0,0,0,.15-.031l0,.006a6.252,6.252,0,1,1-4.674,6.052V17.139a14.028,14.028,0,0,0-3.278-9.455,10.836,10.836,0,0,0-3.328-2.66l-.005.012a.516.516,0,0,0-.3-.1.531.531,0,0,0-.53.531.524.524,0,0,0,.4.506l0,.01a10.018,10.018,0,0,1,3,2.432,12.957,12.957,0,0,1,2.987,8.728v3.624a7.281,7.281,0,1,0,7.281-7.3m-.726,17.749v0a3.606,3.606,0,0,1-2.195-2.383l-.005,0a.519.519,0,0,0-.492-.363.525.525,0,0,0-.524.526.513.513,0,0,0,.033.163l-.005,0c0,.01.008.02.012.031a.143.143,0,0,0,.005.014,4.96,4.96,0,0,0,1.214,1.975H126a5.824,5.824,0,0,0,1.56-4.2c0-.007,0-.012,0-.019s0-.016,0-.024v-.007h0a.521.521,0,0,0-1.042.031c0,.01.005.019.006.029h-.007c.007.132.144,3.236-2.469,4.224v0a.524.524,0,0,0,.184,1.014h8.35a.524.524,0,0,0,.183-1.014M128.2,4.517a49.968,49.968,0,0,0,7.341-.478c3.039-.476,3.449-1.1,3.449-1.656s-.41-1.179-3.449-1.656a56.663,56.663,0,0,0-14.681,0c-3.04.476-3.449,1.1-3.449,1.656s.41,1.179,3.449,1.656a49.967,49.967,0,0,0,7.341.478m0-3.217c5.2,0,8.754.6,9.613,1.084-.859.482-4.413,1.084-9.613,1.084s-8.754-.6-9.613-1.084C119.442,1.9,123,1.3,128.2,1.3" transform="translate(117.826 0.392)" fill="#cb40f7"/>
  <path id="Path_431" data-name="Path 431" d="M50.186,23.831c-.006,0-.012,0-.018,0a3.565,3.565,0,0,0-3.54,3.563v6.677a2.357,2.357,0,0,1-4.712.078l1.016-.483.192-.078.168-.079a2.559,2.559,0,0,0,1.444-2.478V16.281c0-.014.008-.025.008-.04a.6.6,0,1,0-1.2,0h0V31.058l0,.049a1.351,1.351,0,0,1-.762,1.322l-.313.136-8.373,3.979-.013.006-.016.008v0a.6.6,0,0,0,.256,1.142.591.591,0,0,0,.255-.062v0l6.2-2.945a3.552,3.552,0,0,0,7.052-.621V27.4a2.366,2.366,0,0,1,2.354-2.365h.006a.6.6,0,0,0,0-1.2" transform="translate(158.099 -6.079)" fill="#3653e0"/>
  <path id="Path_432" data-name="Path 432" d="M31.738,4.483l-.164-.106-8.3-4,0,.01a.58.58,0,0,0-.313-.1.6.6,0,0,0-.2,1.164l0,.009,8.233,3.971.119.077.035.021a3.425,3.425,0,0,1,.5.326l-10.553,5-1.058.55a2.523,2.523,0,0,0-.926.769L7.651,6.677a1.38,1.38,0,0,1,.148-.1l.236-.1L18.761,1.384l0,0,.038-.019,0-.006a.6.6,0,0,0,.329-.528.6.6,0,0,0-.6-.6.592.592,0,0,0-.246.056L7.568,5.373l-.238.1-.03.013A2.558,2.558,0,0,0,5.856,7.961l0,17.025a2.558,2.558,0,0,0,1.443,2.477l8.794,4.2a4.784,4.784,0,0,0,2.084.635,1.556,1.556,0,0,0,1.624-1.7V13.851l0-.049a1.351,1.351,0,0,1,.762-1.322l1.056-.549L32.2,6.913a1.12,1.12,0,0,0,.779-.893c.071-.715-.669-1.218-1.242-1.537M18.6,30.654s0,.281-.144.378c-.071.047-.49.245-1.83-.442L7.809,26.381a1.35,1.35,0,0,1-.762-1.322l0-.024,0-17.094,0-.049a1.316,1.316,0,0,1,.012-.166l11.573,5.548a2.5,2.5,0,0,0-.036.6v16.78Zm-7.789-12.5c-1.869.772-2.557,3.426-1.533,5.915a5.806,5.806,0,0,0,2.233,2.745,3.638,3.638,0,0,0,1.91.587,2.874,2.874,0,0,0,1.1-.217c1.869-.772,2.557-3.426,1.533-5.915s-3.377-3.887-5.246-3.115m3.322,8.079a2.28,2.28,0,0,1-2.083-.293,4.78,4.78,0,0,1-1.824-2.262c-.808-1.966-.37-4.017.976-4.573a1.872,1.872,0,0,1,.719-.141,3.921,3.921,0,0,1,3.188,2.7c.808,1.966.37,4.017-.976,4.573m-1.071-9.3a1.638,1.638,0,0,0,.626-.123,2.3,2.3,0,0,0,.865-3.122A2.987,2.987,0,0,0,13.4,12.276a1.816,1.816,0,0,0-1.656-.193A2.3,2.3,0,0,0,10.88,15.2a2.543,2.543,0,0,0,2.183,1.728m-.927-3.9a.588.588,0,0,1,.227-.044.993.993,0,0,1,.5.161,1.983,1.983,0,0,1,.743.928c.315.766.174,1.58-.307,1.779s-1.154-.28-1.469-1.045-.174-1.58.308-1.779m9.006-11,2.262,6.387.019-.007a.242.242,0,0,0,.223.177.256.256,0,0,0,.256-.256c0-.031-.023-.052-.033-.079l.019-.007L21.626,1.864l-.019.006a.242.242,0,0,0-.223-.177.256.256,0,0,0-.256.256c0,.031.023.052.033.079Zm2.831,1.091-.019.007a.241.241,0,0,0-.223-.177.256.256,0,0,0-.256.256c0,.031.023.052.033.079l-.019.006,1.536,4.336.019-.007a.243.243,0,0,0,.223.177.256.256,0,0,0,.256-.256c0-.031-.023-.052-.033-.079l.019-.006Zm2.1.9-.019.006a.242.242,0,0,0-.223-.177.256.256,0,0,0-.256.256c0,.031.023.052.032.079l-.019.007.972,2.744.019-.007a.242.242,0,0,0,.223.177.256.256,0,0,0,.256-.256c0-.031-.023-.052-.032-.079l.019-.007Zm1.973.818-.019.007a.241.241,0,0,0-.223-.177.255.255,0,0,0-.256.256c0,.031.023.052.033.079l-.019.007.445,1.257.019-.007a.242.242,0,0,0,.223.177.256.256,0,0,0,.256-.256c0-.031-.023-.052-.032-.079l.019-.007Z" transform="translate(169.858 0.402)" fill="#cb40f7"/>
  <path id="Path_433" data-name="Path 433" d="M129.1,18.86c-.011,0-.021.006-.032.006h-1.181v-.3c0-.011.006-.02.006-.031a.53.53,0,1,0-1.059,0c0,.011.006.02.006.031v1.595c0,.011-.006.02-.006.032a.53.53,0,1,0,1.059,0c0-.012-.006-.021-.006-.032v-.248h1.181c.011,0,.021.006.032.006a.531.531,0,0,0,0-1.062m0,2.993a.307.307,0,0,0-.032.006h-1.181v-.3c0-.011.006-.02.006-.032a.53.53,0,1,0-1.059,0c0,.012.006.021.006.032v1.595c0,.011-.006.02-.006.031a.53.53,0,1,0,1.059,0c0-.011-.006-.02-.006-.031v-.248h1.181c.011,0,.02.006.032.006a.531.531,0,0,0,0-1.062m0,2.994c-.011,0-.021.006-.032.006h-1.181v-.3c0-.011.006-.02.006-.032a.53.53,0,1,0-1.059,0c0,.012.006.021.006.032v1.595c0,.011-.006.02-.006.031a.53.53,0,1,0,1.059,0c0-.011-.006-.02-.006-.031V25.9h1.181a.308.308,0,0,0,.032.006.531.531,0,0,0,0-1.062m12.376-3.3.006,0a5.556,5.556,0,0,0-5.864-2.088l0,.007a.518.518,0,0,0-.4.5.525.525,0,0,0,.524.526.491.491,0,0,0,.128-.026l0,.009a4.513,4.513,0,0,1,4.761,1.7l.006-.005a.514.514,0,0,0,.415.219.525.525,0,0,0,.524-.526.517.517,0,0,0-.11-.307m-3.787,6.3c-.006,0-.01,0-.016,0a3.753,3.753,0,0,1-3.715-3.752V20.535a12.957,12.957,0,0,1,2.987-8.728,10.038,10.038,0,0,1,3-2.432l-.005-.011a.524.524,0,0,0,.4-.5.531.531,0,0,0-.53-.531.518.518,0,0,0-.291.1l0-.008a10.85,10.85,0,0,0-3.328,2.66,14.031,14.031,0,0,0-3.278,9.455v3.557a4.8,4.8,0,0,0,4.73,4.8.431.431,0,0,0,.047.01.531.531,0,0,0,0-1.062" transform="translate(113.85 -3.005)" fill="#3653e0"/>
  <path id="Path_434" data-name="Path 434" d="M243.341,6.918a.624.624,0,0,0-.623.625l0,.009V24.482a2.667,2.667,0,0,1-2.66,2.667H221.311V1.246h18.748a2.666,2.666,0,0,1,2.66,2.666h.006a.616.616,0,0,0,1.232,0h.005c0-.006,0-.012,0-.017s0-.012,0-.018-.009-.035-.011-.054A3.907,3.907,0,0,0,240.059,0H220.068V26.774l-2.3,2.393c0-.057-.005-.112-.005-.166V3.885l0-.009a.623.623,0,1,0-1.246,0l0,.009V29c0,.957.22,1.548.654,1.758a.8.8,0,0,0,.346.079.9.9,0,0,0,.566-.215l2.151-2.228h19.826a3.912,3.912,0,0,0,3.9-3.912V7.551a.054.054,0,0,0,0-.009.624.624,0,0,0-.623-.625" transform="translate(69.708 0.497)" fill="#cb40f7"/>
  <path id="Path_435" data-name="Path 435" d="M227.175,11.891a.239.239,0,0,0,.169-.07h0l7.22-7.237h0a.24.24,0,1,0-.339-.34h0l-7.22,7.237h0a.24.24,0,0,0,.169.41" transform="translate(65.311 -1.258)" fill="#cb40f7"/>
  <path id="Path_436" data-name="Path 436" d="M227.175,9.558a.23.23,0,0,0,.177-.089l.006.006,4.878-4.889,0,0a.238.238,0,0,0,.073-.172.24.24,0,0,0-.24-.241.236.236,0,0,0-.171.074h0l-4.878,4.889.006.006a.231.231,0,0,0-.089.177.239.239,0,0,0,.239.24" transform="translate(65.311 -1.257)" fill="#cb40f7"/>
  <path id="Path_437" data-name="Path 437" d="M229.754,4.186a.239.239,0,0,0-.164.068l0,0-2.549,2.554a.235.235,0,0,0-.08.174.24.24,0,0,0,.24.24.235.235,0,0,0,.171-.075l.006.006,2.552-2.558,0,0a.238.238,0,0,0-.172-.4" transform="translate(65.302 -1.263)" fill="#cb40f7"/>
  <path id="Path_438" data-name="Path 438" d="M227.175,5.238a.234.234,0,0,0,.175-.082l.545-.547-.009-.01a.224.224,0,0,0,.095-.177.235.235,0,0,0-.235-.236.223.223,0,0,0-.177.1l-.013-.013-.55.551.006.007a.236.236,0,0,0-.076.172.239.239,0,0,0,.239.24" transform="translate(65.311 -1.263)" fill="#cb40f7"/>
  <path id="Path_439" data-name="Path 439" d="M239.007,26.339h.46a2.691,2.691,0,0,0,2.685-2.691V17.122a1.446,1.446,0,0,1,1.443-1.446h.46v0a.62.62,0,0,0,0-1.241v0h-.46a2.692,2.692,0,0,0-2.686,2.692v6.526a1.446,1.446,0,0,1-1.443,1.446h-.46a1.671,1.671,0,0,1-1.667-1.671v-.373a1.67,1.67,0,0,1,1.667-1.671h.46v-.016a.612.612,0,0,0,0-1.221v-.009h-.045l0,0,0,0h-.408a2.916,2.916,0,0,0-2.909,2.916v.373a2.916,2.916,0,0,0,2.909,2.915" transform="translate(61.447 -5.571)" fill="#cb40f7"/>
  <path id="Path_440" data-name="Path 440" d="M246.348,50.346l-.006,0a.613.613,0,0,0,.04-.2.624.624,0,0,0-.623-.625.618.618,0,0,0-.583.426l-.005,0a2.664,2.664,0,0,1-2.52,1.815H223.29l-.009,0a.624.624,0,0,0,0,1.249l.009,0h19.36a3.9,3.9,0,0,0,3.671-2.6c.006-.012.011-.024.016-.035s.008-.016.011-.025" transform="translate(67.116 -20.327)" fill="#3653e0"/>
  <path id="Path_441" data-name="Path 441" d="M3.385,6.721A42.1,42.1,0,0,0,.217,17.571c-.045.236-.077.473-.1.711C.108,18.354.1,18.4.1,18.4l0-.008c-.359,4.507,3.237,8.972,7.432,9.4,0,0,13.938,2.506,22.577-7.345a5.917,5.917,0,0,0,.406-.465l.05-.057h-.006c1.9-2.5,1.8-6.462-.238-9.449l.042.024A26.545,26.545,0,0,0,14.566.08C7.327-.845,3.45,6.607,3.385,6.721" transform="translate(-0.083 153.342)" fill="#5f38e5"/>
  <path id="Path_442" data-name="Path 442" d="M31.96,19.135l-1.471-.357a4.63,4.63,0,0,0-.31-.75l.755-1.262a.37.37,0,0,0-.055-.451L29.837,15.27a.366.366,0,0,0-.45-.055l-1.259.757a4.737,4.737,0,0,0-.749-.31l-.356-1.475a.367.367,0,0,0-.358-.282H25.19a.366.366,0,0,0-.356.281l-.357,1.476a4.7,4.7,0,0,0-.749.31l-1.258-.757a.368.368,0,0,0-.45.055l-1.042,1.045a.369.369,0,0,0-.055.451l.756,1.262a4.879,4.879,0,0,0-.31.752l-1.426.358a.368.368,0,0,0-.278.357v1.48a.368.368,0,0,0,.278.356l1.426.358a4.9,4.9,0,0,0,.31.752L20.923,23.7a.371.371,0,0,0,.055.451L22.02,25.2a.367.367,0,0,0,.45.055l1.258-.757a4.895,4.895,0,0,0,.75.311l.357,1.429a.367.367,0,0,0,.356.279h1.476a.367.367,0,0,0,.356-.279l.357-1.429a4.856,4.856,0,0,0,.75-.311l1.259.757a.369.369,0,0,0,.45-.055l1.042-1.045a.368.368,0,0,0,.055-.451l-.756-1.261a4.74,4.74,0,0,0,.31-.751l1.471-.357a.367.367,0,0,0,.281-.359V19.5a.372.372,0,0,0-.284-.362m-6.021,3.749a2.573,2.573,0,1,1,2.567-2.573,2.572,2.572,0,0,1-2.567,2.573M7.694,13.564l-.174.728a2.277,2.277,0,0,0-.365.153l-.613-.373a.177.177,0,0,0-.219.027l-.508.514a.183.183,0,0,0-.027.222l.368.621a2.447,2.447,0,0,0-.151.37L5.311,16a.179.179,0,0,0-.136.174v.732a.179.179,0,0,0,.136.174l.695.176a2.447,2.447,0,0,0,.151.37l-.368.621a.184.184,0,0,0,.027.222l.508.514a.177.177,0,0,0,.219.027l.613-.373a2.371,2.371,0,0,0,.365.153l.174.705a.179.179,0,0,0,.174.136H8.2V17.846a1.266,1.266,0,0,1,0-2.531V13.427H7.867a.179.179,0,0,0-.174.137" transform="translate(-2.787 146.227)" fill="#d89d36"/>
  <path id="Path_443" data-name="Path 443" d="M27.335,10.825l.686.413.212-.874a1.319,1.319,0,0,1,.377-.652V8.7a2.055,2.055,0,0,0-2.053-2.057H15.376A2.055,2.055,0,0,0,13.323,8.7V25.966a2.055,2.055,0,0,0,2.053,2.057H26.556a2.055,2.055,0,0,0,2.053-2.057V23.51a1.323,1.323,0,0,1-.373-.64l-.209-.838-.691.416v1.745H14.6V8.713H27.335v2.113ZM20.966,25.31a.8.8,0,1,1-.8.8.8.8,0,0,1,.8-.8" transform="translate(-7.113 149.825)" fill="#aebccb"/>
  <path id="Path_444" data-name="Path 444" d="M131.936,21.536a42.225,42.225,0,0,0,3.176-10.877c.044-.236.077-.474.1-.712.009-.072.014-.116.014-.116l0,.008c.36-4.519-3.245-8.993-7.451-9.426,0,0-13.973-2.512-22.632,7.363a5.958,5.958,0,0,0-.407.466l-.05.057h.006c-1.9,2.5-1.807,6.478.239,9.472l-.042-.024a26.61,26.61,0,0,0,15.844,10.447c7.256.927,11.143-6.544,11.208-6.658" transform="translate(-48.33 153.275)" fill="#5f38e5"/>
  <path id="Path_445" data-name="Path 445" d="M148.876,20.178l-1.253,1.728a.66.66,0,0,1-.864.2.641.641,0,0,1-.189-.926l1.272-1.755a2.5,2.5,0,0,0-3.274,3.155l-5.336,7.36a2.506,2.506,0,0,0-1.983,4.1l1.272-1.755a.638.638,0,0,1,.937-.106.664.664,0,0,1,.077.885l-1.253,1.728a2.508,2.508,0,0,0,3.209-3.337l5.21-7.185a2.51,2.51,0,0,0,2.175-4.089" transform="translate(-66.044 143.139)" fill="#d89d36"/>
  <path id="Path_446" data-name="Path 446" d="M127.25,7.106H111.288a.479.479,0,0,0-.479.48V26.944a.479.479,0,0,0,.479.479h9.737a.48.48,0,0,0,0-.959h-9.258V8.066h15V18.144a.479.479,0,1,0,.958,0V7.586a.479.479,0,0,0-.479-.48M116.3,10.881a.478.478,0,0,0-.67.1l-1.173,1.568-.4-.528a.479.479,0,1,0-.766.576l.778,1.04a.478.478,0,0,0,.766,0l1.556-2.08a.481.481,0,0,0-.1-.672m0,4.8a.478.478,0,0,0-.67.1l-1.173,1.568-.4-.528a.479.479,0,1,0-.766.576l.778,1.04a.478.478,0,0,0,.766,0l1.556-2.08a.48.48,0,0,0-.1-.672m0,4.639a.478.478,0,0,0-.67.1l-1.173,1.568-.4-.528a.479.479,0,1,0-.766.576l.778,1.04a.478.478,0,0,0,.766,0l1.556-2.08a.48.48,0,0,0-.1-.672m8.392-8.415h-6.7a.48.48,0,0,0,0,.96h6.7a.48.48,0,0,0,0-.96m0,4.8h-6.7a.48.48,0,0,0,0,.96h6.7a.48.48,0,0,0,0-.96m0,4.8h-6.7a.48.48,0,0,0,0,.96h6.7a.48.48,0,0,0,0-.96" transform="translate(-52.305 149.577)" fill="#aebccb"/>
  <path id="Path_447" data-name="Path 447" d="M210.215,6.721a42.1,42.1,0,0,0-3.168,10.85c-.045.236-.077.473-.1.711-.009.072-.014.115-.014.115l0-.008c-.359,4.507,3.237,8.972,7.432,9.4,0,0,13.938,2.506,22.577-7.345a5.915,5.915,0,0,0,.406-.465l.05-.057H237.4c1.9-2.5,1.8-6.462-.238-9.449l.042.024A26.545,26.545,0,0,0,221.4.08c-7.239-.924-11.115,6.528-11.18,6.642" transform="translate(-92.353 153.342)" fill="#5f38e5"/>
  <path id="Path_448" data-name="Path 448" d="M249.9,44.846H235.736a.671.671,0,0,0-.671.672V47.7a.671.671,0,0,0,.671.672H249.9a.671.671,0,0,0,.67-.672V45.518a.671.671,0,0,0-.67-.672m-13.24,2.244a.481.481,0,1,1,.48-.481.48.48,0,0,1-.48.481m1.6,0a.481.481,0,1,1,.48-.481.48.48,0,0,1-.48.481m1.6,0a.481.481,0,1,1,.48-.481.48.48,0,0,1-.48.481m5.756,0h-.639a.481.481,0,0,1,0-.961h.639a.481.481,0,0,1,0,.961m3.358,0h-1.759a.481.481,0,0,1,0-.961h1.759a.481.481,0,0,1,0,.961" transform="translate(-107.3 129.578)" fill="#d89d36"/>
  <path id="Path_449" data-name="Path 449" d="M249.9,35.3H235.736a.671.671,0,0,0-.671.672v2.182a.671.671,0,0,0,.671.672H249.9a.671.671,0,0,0,.67-.672V35.973a.671.671,0,0,0-.67-.672m-13.24,2.244a.481.481,0,1,1,.48-.481.48.48,0,0,1-.48.481m1.6,0a.481.481,0,1,1,.48-.481.48.48,0,0,1-.48.481m1.6,0a.481.481,0,1,1,.48-.481.48.48,0,0,1-.48.481m5.756,0h-.639a.481.481,0,0,1,0-.961h.639a.481.481,0,0,1,0,.961m3.358,0h-1.759a.481.481,0,0,1,0-.961h1.759a.481.481,0,0,1,0,.961" transform="translate(-107.3 134.636)" fill="#d89d36"/>
  <path id="Path_450" data-name="Path 450" d="M249.9,25.756H235.736a.671.671,0,0,0-.671.672V28.61a.671.671,0,0,0,.671.672H249.9a.671.671,0,0,0,.67-.672V26.428a.671.671,0,0,0-.67-.672M236.664,28a.481.481,0,1,1,.48-.481.48.48,0,0,1-.48.481m1.6,0a.481.481,0,1,1,.48-.481.48.48,0,0,1-.48.481m1.6,0a.481.481,0,1,1,.48-.481.48.48,0,0,1-.48.481m5.756,0h-.639a.481.481,0,0,1,0-.961h.639a.481.481,0,0,1,0,.961m3.358,0h-1.759a.481.481,0,0,1,0-.961h1.759a.481.481,0,0,1,0,.961" transform="translate(-107.3 139.694)" fill="#d89d36"/>
  <path id="Path_451" data-name="Path 451" d="M233.6,13.967a9.837,9.837,0,1,0-11.185,12.27.494.494,0,0,0,.083.007.481.481,0,0,0,.081-.955,8.853,8.853,0,0,1-7.189-7.074,13.059,13.059,0,0,0,5.506,1.606,17.18,17.18,0,0,0,.965,4.264.48.48,0,1,0,.892-.355,15.824,15.824,0,0,1-.88-3.817q.456.035.915.055h.021a.481.481,0,0,0,.021-.961c-.365-.016-.716-.039-1.055-.066-.061-.751-.094-1.533-.094-2.335,0-.829.033-1.609.092-2.336.726-.059,1.5-.092,2.331-.092a24.157,24.157,0,0,1,5.687.626.481.481,0,0,0,.234-.932,20.738,20.738,0,0,0-2.714-.48,12.927,12.927,0,0,0-1.687-5.628,8.893,8.893,0,0,1,7.051,6.451.48.48,0,1,0,.926-.249m-11-6.2a12.779,12.779,0,0,0-1.7,5.636,13.017,13.017,0,0,0-5.547,1.645,8.9,8.9,0,0,1,7.243-7.28M220.8,18.845c-3.6-.432-5.494-1.5-5.494-2.238,0-.789,2.029-1.822,5.5-2.24-.058.74-.088,1.494-.088,2.24,0,.764.029,1.513.083,2.238m3.3-5.628c-.744,0-1.5.03-2.235.088.417-3.477,1.447-5.51,2.235-5.51s1.81,2.05,2.23,5.507c-.722-.055-1.467-.084-2.23-.084" transform="translate(-96.259 149.807)" fill="#aebccb"/>
  <path id="Path_452" data-name="Path 452" d="M48.62,10.252,44.188,8.315V24.437l5.257-12.08a1.6,1.6,0,0,0-.825-2.106" transform="translate(-14.58 51.088)" fill="#ff6363"/>
  <path id="Path_453" data-name="Path 453" d="M132.658,9.343a1.159,1.159,0,0,0-2.039-.056L126.5,16.464l-.005.009-1.406,2.447a1.157,1.157,0,0,0,1,1.735h6.552a1.167,1.167,0,0,0,1.123-.874,14.583,14.583,0,0,0-1.1-10.438m-5.778,3.368,3.258-5.669a1.143,1.143,0,0,0-.16-1.371A14.543,14.543,0,0,0,119.63,1.35c-.408,0-.809.028-1.209.061l6.455,11.3a1.154,1.154,0,0,0,2,0M117.2,2.368a1.137,1.137,0,0,0-1.261-.553,14.633,14.633,0,0,0-8.587,6.239,1.163,1.163,0,0,0,.97,1.8h11.161a1.158,1.158,0,0,0,1-1.733Z" transform="translate(-49.209 54.103)" fill="#ff6363"/>
  <path id="Path_454" data-name="Path 454" d="M248.81,1.008h-3.636a.407.407,0,0,0-.407.407,1.135,1.135,0,0,1-1.133,1.136H236.3V4.095h7.244a1.228,1.228,0,0,1,1.226,1.229V26.019a1.227,1.227,0,0,1-1.226,1.229H236.3v1.544h7.337a1.135,1.135,0,0,1,1.133,1.136.407.407,0,0,0,.407.407h3.636a1.349,1.349,0,0,0,1.348-1.351V2.358a1.349,1.349,0,0,0-1.348-1.35m-.192,25.468a.771.771,0,0,1-.77.772h-.77a.771.771,0,0,1-.77-.772V23.389a.771.771,0,0,1,.77-.772h.77a.771.771,0,0,1,.77.772Zm0-9.261a.771.771,0,0,1-.77.772h-.77a.771.771,0,0,1-.77-.772V14.128a.771.771,0,0,1,.77-.772h.77a.771.771,0,0,1,.77.772Zm0-9.261a.771.771,0,0,1-.77.772h-.77a.771.771,0,0,1-.77-.772V4.867a.771.771,0,0,1,.77-.772h.77a.771.771,0,0,1,.77.772Z" transform="translate(-105.277 54.251)" fill="#ff6363"/>
  <path id="Path_455" data-name="Path 455" d="M20.973,0H5.358A3.362,3.362,0,0,0,2,3.365v22.6a3.362,3.362,0,0,0,3.358,3.366H20.973a3.362,3.362,0,0,0,3.358-3.366V3.365A3.362,3.362,0,0,0,20.973,0M9.315,3.858a2.7,2.7,0,1,1-2.695,2.7,2.7,2.7,0,0,1,2.695-2.7m13.475,22.1a1.823,1.823,0,0,1-1.819,1.823H5.358A1.823,1.823,0,0,1,3.54,25.961V18l1.869-1.874a2.344,2.344,0,0,1,3.32,0l.155.155L7.237,17.93a.77.77,0,0,0,1.082,1.1l8.286-8.3a2.343,2.343,0,0,1,3.32,0l2.866,2.872Z" transform="translate(3.737 54.688)" fill="#505bda"/>
  <path id="Path_456" data-name="Path 456" d="M111.676,19.061h-6.725a1.168,1.168,0,0,0-1.124.878,14.577,14.577,0,0,0,1.211,10.568,1.16,1.16,0,0,0,2.033.047l5.607-9.757a1.157,1.157,0,0,0-1-1.735m17.573,10.8H117.968a1.158,1.158,0,0,0-1,1.733l3.28,5.739a1.138,1.138,0,0,0,1.249.557,14.625,14.625,0,0,0,8.723-6.228,1.163,1.163,0,0,0-.968-1.8M110.725,27.3l-3.143,5.47A1.176,1.176,0,0,0,107.8,34.2a14.538,14.538,0,0,0,10.174,4.148c.351,0,.695-.028,1.04-.053L112.728,27.3a1.154,1.154,0,0,0-2,0" transform="translate(-47.548 46.436)" fill="#505bda"/>
  <path id="Path_457" data-name="Path 457" d="M215.695,4.095h7.244V2.552H215.6a1.135,1.135,0,0,1-1.133-1.136.407.407,0,0,0-.406-.407h-3.636a1.349,1.349,0,0,0-1.348,1.35V28.984a1.349,1.349,0,0,0,1.348,1.351h3.636a.407.407,0,0,0,.406-.407,1.135,1.135,0,0,1,1.133-1.136h7.337V27.248h-7.244a1.227,1.227,0,0,1-1.226-1.229V5.324a1.228,1.228,0,0,1,1.226-1.229m-2.766,22.381a.771.771,0,0,1-.77.772h-.77a.771.771,0,0,1-.77-.772V23.389a.771.771,0,0,1,.77-.772h.77a.771.771,0,0,1,.77.772Zm0-9.261a.771.771,0,0,1-.77.772h-.77a.771.771,0,0,1-.77-.772V14.128a.771.771,0,0,1,.77-.772h.77a.771.771,0,0,1,.77.772Zm0-9.261a.771.771,0,0,1-.77.772h-.77a.771.771,0,0,1-.77-.772V4.867a.771.771,0,0,1,.77-.772h.77a.771.771,0,0,1,.77.772Z" transform="translate(-93.459 54.251)" fill="#505bda"/>
  <path id="Path_458" data-name="Path 458" d="M39.868,18.553,24.923,30.807l-.033.008L9.927,18.549l-.672.506V40.394a.9.9,0,0,0,.9.9H39.625a.9.9,0,0,0,.9-.9V19.049Z" transform="translate(166.448 42.946)" fill="#f2f2f2"/>
  <path id="Path_459" data-name="Path 459" d="M49.33,18.545l-14.9,12.218v10.53h14.65a.9.9,0,0,0,.9-.9V19.008Z" transform="translate(156.994 42.947)" fill="#d6d7d8"/>
  <path id="Path_460" data-name="Path 460" d="M25.178,24.732l15.369-12.6v-.145L25.172.075h-.057L9.932,11.837Z" transform="translate(166.194 49.858)" fill="#6c75e2"/>
  <path id="Path_461" data-name="Path 461" d="M26.731,28.459l.033-.008,12.567-10.3v-5.9H14.161v5.9Z" transform="translate(164.606 45.302)" fill="#ee907a"/>
  <path id="Path_462" data-name="Path 462" d="M39.967,18.545,25.013,30.806l-.034.008L10.021,18.551l-.525.406L24.98,31.65l.035-.008,15.5-12.706Z" transform="translate(166.358 42.947)" fill="#fff"/>
  <path id="Path_463" data-name="Path 463" d="M36.091,20.984a4.173,4.173,0,1,0-4.173,4.182,4.121,4.121,0,0,0,1.894-.454l-.229-.45a3.623,3.623,0,0,1-1.665.4A3.675,3.675,0,1,1,35.47,21.91c0,.019-.01.038-.014.056-.011.038-.021.074-.032.111h0c-.148.484-.388.75-.729.75-.3,0-.55-.178-.55-.676V18.78h-.577v.9a1.981,1.981,0,0,0-1.757-.934,2.175,2.175,0,0,0-2.2,2.286,2.185,2.185,0,0,0,2.2,2.3,1.974,1.974,0,0,0,1.775-.97.947.947,0,0,0,1,.97A1.378,1.378,0,0,0,35.9,22.227h0a4.2,4.2,0,0,0,.187-1.244m-4.2,1.835a1.667,1.667,0,0,1-1.7-1.788,1.693,1.693,0,1,1,3.382,0,1.666,1.666,0,0,1-1.687,1.788" transform="translate(159.504 43.6)" fill="#fff"/>
  <path id="Path_464" data-name="Path 464" d="M39.967,18.545,25.013,30.806l-.034.008L10.021,18.551l-.525.406L24.98,31.65l.035-.008,15.5-12.706Z" transform="translate(166.358 42.947)" fill="#f2f2f2"/>
  <g id="Group_44" data-name="Group 44" transform="translate(176.83 153.311)">
    <g id="Group_43" data-name="Group 43" transform="translate(0 0)" clip-path="url(#clip-path-2)">
      <path id="Path_465" data-name="Path 465" d="M10.391,4.807Q4.925,11.257.047,18.177c-.191.271.246.613.462.358A89.441,89.441,0,0,1,13.079,6.279q1.969-1.574,4.027-3.031l-.356-.463A114.313,114.313,0,0,0,4.434,15.231q-1.613,1.9-3.142,3.875c-.227.292.163.71.416.417A103.85,103.85,0,0,1,13.758,7.206q1.892-1.569,3.921-2.96l-.357-.463A154.651,154.651,0,0,0,5.212,17.655Q3.633,19.7,2.122,21.792c-.194.268.255.62.462.357A119.186,119.186,0,0,1,15.42,8.28q1.974-1.819,4.027-3.545l-.416-.417q-3.248,3.466-6.277,7.13c-1.982,2.4-3.958,4.843-5.713,7.418A23.532,23.532,0,0,0,4.612,23.3c-.134.332.357.475.537.227A94.789,94.789,0,0,1,19.284,8.017q2.222-1.952,4.563-3.762l-.356-.463C18.674,8.8,13.826,13.853,9.948,19.651a52.086,52.086,0,0,0-2.973,5.012c-.147.284.229.618.462.358A203.1,203.1,0,0,1,23.109,8.75q2.367-2.118,4.873-4.069l-.416-.417A149.57,149.57,0,0,0,12.13,21.575q-2,2.624-3.877,5.334c-.189.272.248.615.462.357,5.118-6.154,10.33-12.314,16.514-17.433A58.9,58.9,0,0,1,30.763,5.76L30.406,5.3c-5.413,5.69-10.838,11.394-15.694,17.578q-2.053,2.614-3.954,5.343c-.19.274.24.605.462.357a204.4,204.4,0,0,1,16.046-16.6c1.639-1.458,3.325-2.863,5.067-4.2l-.356-.464a154.1,154.1,0,0,0-15.3,17.228q-1.952,2.625-3.724,5.378c-.177.276.25.621.462.357,5.168-6.445,11.45-11.883,17.872-17.03,1.8-1.446,3.625-2.872,5.447-4.295l-.416-.416C30.028,14.638,23.559,20.6,17.853,27.275c-1.393,1.629-3.3,3.444-3.106,5.781a.3.3,0,0,0,.5.209,216.975,216.975,0,0,1,17.8-17.585c1.826-1.547,3.7-3.03,5.643-4.433l-.356-.464Q30.073,19.172,22.62,28.307q-2.113,2.592-4.158,5.239c-.227.294.177.715.416.417a129.356,129.356,0,0,1,20.583-20.4Q42.7,11,46.1,8.654l-.356-.463q-1,.918-1.995,1.844-2.487,2.314-4.95,4.652-3.2,3.041-6.353,6.135c-2.1,2.067-4.18,4.154-6.2,6.3a65.951,65.951,0,0,0-4.52,5.152q-.185.241-.363.488c-.222.307.288.6.508.3a51.758,51.758,0,0,1,4.193-4.884c1.974-2.113,4.01-4.168,6.064-6.2q3.16-3.129,6.385-6.192,2.584-2.462,5.2-4.9.82-.765,1.644-1.525c.255-.236.544-.459.777-.717.01-.011.022-.02.033-.031.243-.223-.079-.655-.356-.463A129.642,129.642,0,0,0,23.849,27.271q-2.793,3.05-5.387,6.275l.416.417q7.2-9.318,15.242-17.936Q36.4,13.582,38.748,11.2c.226-.23-.078-.665-.357-.464a138.864,138.864,0,0,0-18.66,16.917q-2.466,2.581-4.9,5.193l.5.208c-.177-2.126,1.581-3.777,2.847-5.262,1.378-1.616,2.8-3.19,4.262-4.734,2.936-3.111,5.995-6.1,9.07-9.075C33.254,12.3,35,10.633,36.734,8.948c.28-.272-.126-.644-.416-.416-6.5,5.075-13.012,10.192-18.745,16.142-1.6,1.66-3.131,3.384-4.574,5.183l.462.358a120.381,120.381,0,0,1,14.387-17.86q2.238-2.346,4.543-4.626c.229-.228-.084-.672-.356-.463A130.8,130.8,0,0,0,15.228,23.252Q13,25.691,10.8,28.158l.462.357A160.038,160.038,0,0,1,26.3,10.493q2.25-2.4,4.524-4.779c.224-.235-.067-.651-.356-.463C23.673,9.653,18,15.505,12.727,21.6c-1.5,1.732-2.964,3.487-4.427,5.246l.462.358A148.635,148.635,0,0,1,23.374,9.3q2.253-2.36,4.608-4.618c.281-.27-.126-.642-.416-.417A130.769,130.769,0,0,0,11.279,19.871Q9.136,22.225,7.021,24.6l.462.357c3.187-6.152,7.679-11.473,12.382-16.508C21.2,7.026,22.553,5.617,23.907,4.21c.221-.231-.083-.675-.357-.464A95.39,95.39,0,0,0,8.274,18.532q-1.888,2.291-3.633,4.7l.537.227a33.149,33.149,0,0,1,4.814-7.609q2.833-3.679,5.891-7.176,1.747-2,3.563-3.936a.3.3,0,0,0-.416-.417A119.156,119.156,0,0,0,5.583,17.592q-1.754,2.031-3.415,4.14l.462.357A154.1,154.1,0,0,1,14.184,7.934q1.746-1.9,3.554-3.735c.228-.231-.072-.657-.356-.463A73.235,73.235,0,0,0,4.557,15.394c-1.1,1.223-2.189,2.465-3.266,3.712l.416.417A114.344,114.344,0,0,1,13.468,6.549q1.813-1.714,3.7-3.346c.249-.216-.083-.657-.357-.463A89.9,89.9,0,0,0,3.454,14.345Q1.72,16.184.093,18.118l.462.357Q5.384,11.624,10.807,5.224c.244-.287-.17-.707-.416-.417" transform="translate(-6.069 -3.568)" fill="#c33be3"/>
    </g>
  </g>
  <path id="Path_467" data-name="Path 467" d="M38.276,12.279c-.305-.856-.711-1.676-1.092-2.5a10.306,10.306,0,0,0-3.739-4.332C30.917,3.767,28.084,3.112,23.8,3.055c-2.67-.067-5.752,1.7-8.154,4.679a19.673,19.673,0,0,0-4.014,9.336,10.349,10.349,0,0,0,3.247,9.553A15.047,15.047,0,0,0,19,29.261a15.728,15.728,0,0,0,7.651,1.721,11.832,11.832,0,0,0,8.423-3.853,15.194,15.194,0,0,0,3.555-6.918,13.6,13.6,0,0,0-.348-7.931m-.468,4.864a13.971,13.971,0,0,1-4.787,10.318,10.361,10.361,0,0,1-6.4,2.415,15.519,15.519,0,0,1-8.242-2.148,11.257,11.257,0,0,1-3.806-2.98,9.432,9.432,0,0,1-1.931-7.47,20.962,20.962,0,0,1,3.006-7.849,8.863,8.863,0,0,1,2.938-3.06c.559-.329,1.075-.733,1.637-1.057a9.8,9.8,0,0,1,4.954-1.1,14.343,14.343,0,0,1,6.493,1.548,9.794,9.794,0,0,1,4.217,4.153,13.669,13.669,0,0,1,1.924,7.226M30.992,7.291a12.39,12.39,0,0,0-5.055-1.474,9.654,9.654,0,0,0-9.3,4.554A15.116,15.116,0,0,0,14.7,14.376a12.711,12.711,0,0,0-.852,3.976,8.922,8.922,0,0,0,1.889,5.519,9.92,9.92,0,0,0,3.46,2.7,13.311,13.311,0,0,0,7.015,1.782,9.563,9.563,0,0,0,5.383-1.875c3.138-2.407,4.393-5.745,4.631-9.562A12.483,12.483,0,0,0,34.3,10.471a8.411,8.411,0,0,0-3.307-3.18M34.6,16.3c-.428.024-.859,0-1.289,0-.463,0-.751.2-.78.557-.031.368.235.649.713.678a14.482,14.482,0,0,0,1.545,0c.287-.014.424.052.38.36-.5,3.523-1.873,6.525-5.051,8.426a8.468,8.468,0,0,1-4.006,1.133c-.275.013-.436-.063-.5-.351-.155-.669-.341-1.331-.5-2-.075-.316-.171-.6-.532-.677a.585.585,0,0,0-.7.682c.066.608.213,1.208.33,1.81.025.127.073.249.119.405a1.4,1.4,0,0,1-.3.016A13.786,13.786,0,0,1,16.9,23.888,7.414,7.414,0,0,1,14.7,18.6c-.011-.31.1-.414.4-.408a7.574,7.574,0,0,0,1.288-.044,1.034,1.034,0,0,0,.636-.352.568.568,0,0,0-.516-.858,10.033,10.033,0,0,0-1.215.01c-.3.014-.429-.066-.352-.4a15.068,15.068,0,0,1,3.185-6.785,8.348,8.348,0,0,1,6.019-3.035c.487-.022.495-.011.49.476,0,.394-.012.789.014,1.181.03.451.3.717.655.7s.563-.3.573-.733c.01-.406.009-.813.01-1.219,0-.258.093-.382.38-.346a9.949,9.949,0,0,1,6.125,2.774,5.337,5.337,0,0,1,.741.916,12.753,12.753,0,0,1,2.013,5.152c.074.6.054.643-.539.676m-7.272-3.93a.561.561,0,0,0-.7.143,1.737,1.737,0,0,0-.231.332q-.989,1.731-1.975,3.463a2.779,2.779,0,0,1-.182.244c-.45-.607-.878-1.159-1.279-1.73-.947-1.347-1.881-2.7-2.82-4.057a2.377,2.377,0,0,0-.192-.27.573.573,0,0,0-.736-.139.55.55,0,0,0-.284.69,1.991,1.991,0,0,0,.26.567q1.374,1.986,2.768,3.96c.389.553.8,1.091,1.165,1.66a.914.914,0,0,1,.093.614,1.345,1.345,0,0,0,.281,1.437,1.684,1.684,0,0,0,1.686.366,1.391,1.391,0,0,0,.6-2.269.519.519,0,0,1-.106-.781c.586-1,1.159-2,1.731-3.007a2.123,2.123,0,0,0,.23-.54.558.558,0,0,0-.307-.681" transform="translate(164.854 149.558)" fill="#6ec7de"/>
  <g id="Group_46" data-name="Group 46" transform="translate(240.114 153.28)">
    <g id="Group_45" data-name="Group 45" transform="translate(0 0)" clip-path="url(#clip-path-3)">
      <path id="Path_468" data-name="Path 468" d="M137.11.542q-1.967,2.1-3.761,4.358a18.865,18.865,0,0,0-2.907,4.425c-.084.206.222.294.333.141A43.9,43.9,0,0,1,139.39.586L139.168.3c-2.843,2.957-5.721,5.972-7.631,9.644-.092.176.142.383.286.222,3-3.366,5.7-7.073,9.287-9.863l-.258-.259c-3.5,3.37-6.217,7.475-8.972,11.45-.117.169.153.381.286.221,3.129-3.764,6.27-7.736,10.415-10.433l-.221-.287a91.011,91.011,0,0,0-9.077,10.59c-.118.17.149.376.286.221A75.182,75.182,0,0,1,143.6,2.135l-.221-.287A64.236,64.236,0,0,0,134.3,12.368c-.127.2.188.382.315.185a63.794,63.794,0,0,1,9.023-10.446c.142-.141-.052-.416-.221-.287a75.645,75.645,0,0,0-10.1,9.727l.286.221a90.363,90.363,0,0,1,9.02-10.516c.138-.146-.042-.4-.221-.287-4.174,2.716-7.337,6.7-10.488,10.49l.286.221c2.738-3.95,5.438-8.026,8.915-11.376.174-.168-.078-.4-.258-.259-3.584,2.791-6.283,6.5-9.287,9.863l.286.222c1.9-3.646,4.751-6.635,7.574-9.571.137-.143-.051-.418-.221-.287a44.5,44.5,0,0,0-8.745,9.01l.333.141a19.09,19.09,0,0,1,3-4.492Q135.5,2.8,137.367.8c.161-.171-.1-.43-.258-.258" transform="translate(-133.241 -2.154)" fill="#c33be3"/>
    </g>
  </g>
  <path id="Path_470" data-name="Path 470" d="M144.153,4.39a1.571,1.571,0,0,0-2.007.4.658.658,0,0,1-.433.25,8.9,8.9,0,0,1-3.482-.778c-.667-.318-1.338-.64-2.032-.89a13.04,13.04,0,0,0-2.2-.624,8.652,8.652,0,0,0-3.187.213,3.334,3.334,0,0,0-1.735.794,12.7,12.7,0,0,0-2.63,3.41,5.045,5.045,0,0,0-.463,2.718,1.222,1.222,0,0,0,.539.93,4.263,4.263,0,0,0,1.982.754c.132.019.357.161.352.233a13.116,13.116,0,0,1-.191,1.466,2.06,2.06,0,0,1-.225.431,6.274,6.274,0,0,1-.633,1.337,12.97,12.97,0,0,1-1.876,1.951,14.773,14.773,0,0,0-4.615,6.331.955.955,0,0,1-.089.147l-.076-.011a4.2,4.2,0,0,1-.031-.5,6.665,6.665,0,0,1,.935-3.09c.458-.768.976-1.5,1.458-2.251a5.044,5.044,0,0,0,.507-.9,1.418,1.418,0,0,0-1.572-2.031,3.371,3.371,0,0,0-1.869.812,8.576,8.576,0,0,0-3.176,7.8,10.548,10.548,0,0,0,3.1,6.12,4.064,4.064,0,0,0,2.57,1.161c.869.092,1.754.024,2.632.035,1.25.016,2.5.05,3.748.055a12.368,12.368,0,0,0,1.793-.078c1.286-.183,2.563-.426,3.846-.633a.637.637,0,0,1,.361.066,5.823,5.823,0,0,0,4.72-.024,1.284,1.284,0,0,0,.593-2.054,4.477,4.477,0,0,0-1.2-1.038,17.09,17.09,0,0,0-1.669-.852,1.12,1.12,0,0,1-.693-1.166c.076-1.148.133-2.3.21-3.445a22.809,22.809,0,0,0-.049-6.229,14.5,14.5,0,0,1-.223-1.516,1.359,1.359,0,0,1,.825-1.463c.345-.164.7-.3,1.06-.436a8.013,8.013,0,0,0,4.109-3.11A1.611,1.611,0,0,0,143.3,8.2c.054-.228.135-.4.411-.421a1.242,1.242,0,0,0,1.091-.793,3.649,3.649,0,0,0,.239-1.186,1.3,1.3,0,0,0-.888-1.411M128.007,10.17c-.713-.149-.791-.354-.8-1.078a3.3,3.3,0,0,1,.435-1.49,9.962,9.962,0,0,1,2.3-2.937,4.927,4.927,0,0,1,.5-.345c.129.559.265,1.022.34,1.5.129.816.266,1.636.313,2.459a2.713,2.713,0,0,1-.483,1.707.709.709,0,0,1-.672.357,15.155,15.155,0,0,1-1.933-.167m13.95-1.937a7.115,7.115,0,0,1-3.137,2.3c-.364.155-.746.266-1.108.424a2.652,2.652,0,0,0-1.788,2.97c.082.89.349,1.768.372,2.656.037,1.5-.036,3.012-.1,4.517-.051,1.252-.157,2.5-.231,3.752a2.257,2.257,0,0,0,1.318,2.275c.565.3,1.159.542,1.7.87.288.173.715.485.7.709-.026.381-.535.331-.857.379a11.381,11.381,0,0,1-1.6.14A1.968,1.968,0,0,1,135.2,27.79a6.07,6.07,0,0,1-.264-1.729,6.265,6.265,0,0,0-3.918-5.68,2.992,2.992,0,0,0-2.789.207c-.37.227-.765.41-1.14.627a.643.643,0,0,0-.358.859.636.636,0,0,0,.926.233c.447-.217.883-.46,1.316-.706a1.679,1.679,0,0,1,1.367-.136,5.048,5.048,0,0,1,3.359,4.429c.025.77.206,1.536.3,2.3a5.3,5.3,0,0,1,0,.647,20.07,20.07,0,0,1-4.9.557c-.873-.084-1.76-.016-2.64-.042-1.171-.035-2.344-.066-3.511-.154a2.756,2.756,0,0,1-2.011-1.13,10.733,10.733,0,0,1-2.173-4.191,7.154,7.154,0,0,1,1.657-6.473A8.019,8.019,0,0,1,122,16.1c.2-.14.548-.072.828-.1a3.463,3.463,0,0,1-.253.786c-.571.937-1.2,1.839-1.759,2.784A7.529,7.529,0,0,0,119.9,22.6a5.356,5.356,0,0,0,.858,3.358.677.677,0,0,0,.712.354.662.662,0,0,0,.549-.567c.087-.334.174-.668.247-1.005a11.809,11.809,0,0,1,3.851-6.255,23.18,23.18,0,0,0,2.44-2.367,6.285,6.285,0,0,0,1.571-4.143c0-.209.021-.376.283-.413a1.721,1.721,0,0,0,1.2-.821,4.982,4.982,0,0,0,.667-3.717c-.143-.894-.35-1.777-.538-2.664-.052-.246.066-.324.274-.354a6.359,6.359,0,0,1,3.6.447c.837.38,1.682.739,2.525,1.1a8.2,8.2,0,0,0,2.929.679c.279.012.706.1.8.282.262.527.564,1.082.1,1.716m-6-2.623c-.625,0-.954.409-.947,1.172A1.055,1.055,0,0,0,136.1,7.82a1.528,1.528,0,0,0,1.116-1.242c0-.523-.578-.969-1.262-.967" transform="translate(113.605 149.753)" fill="#6ec7de"/>
  <g id="Group_48" data-name="Group 48" transform="translate(291.702 159.452)">
    <g id="Group_47" data-name="Group 47" transform="translate(0 0)" clip-path="url(#clip-path-4)">
      <path id="Path_471" data-name="Path 471" d="M223.351,6.362q-5.586,6.594-10.573,13.667c-.251.356.323.8.606.468A91.472,91.472,0,0,1,226.159,8.032q2.03-1.624,4.151-3.126l-.467-.607A116.82,116.82,0,0,0,217.256,17.02q-1.639,1.935-3.193,3.939c-.3.382.214.93.545.547A106.366,106.366,0,0,1,226.85,8.981q1.951-1.622,4.045-3.058l-.467-.607a158.125,158.125,0,0,0-12.371,14.172q-1.615,2.089-3.16,4.23c-.254.352.334.813.606.468A121.828,121.828,0,0,1,228.6,10.03q2.016-1.857,4.113-3.621l-.545-.547q-3.324,3.548-6.423,7.3c-2.028,2.456-4.048,4.954-5.842,7.589a24.194,24.194,0,0,0-2.477,4.528c-.176.436.469.623.705.3A96.719,96.719,0,0,1,232.474,9.828q2.3-2.022,4.718-3.895l-.467-.607c-4.91,5.106-9.849,10.255-13.808,16.16a53.527,53.527,0,0,0-3.065,5.163.386.386,0,0,0,.666.391A94.74,94.74,0,0,1,236.406,10.4q2.469-2.074,5.024-4.042l-.545-.547a152.934,152.934,0,0,0-15.762,17.678q-2.043,2.684-3.966,5.457c-.247.357.325.806.606.468,5.228-6.286,10.552-12.579,16.87-17.806a60.17,60.17,0,0,1,5.619-4.135l-.467-.608c-5.529,5.812-11.068,11.635-16.027,17.951q-2.1,2.674-4.044,5.464c-.284.41.384.8.666.39a163.413,163.413,0,0,1,15.338-18.386q2.294-2.448,4.612-4.873c.293-.308-.088-.853-.467-.607-6.931,4.494-12.726,10.459-18.1,16.68-1.535,1.776-3.041,3.577-4.542,5.383l.606.468a151.7,151.7,0,0,1,14.9-18.265q2.3-2.409,4.7-4.715c.37-.355-.165-.841-.545-.547a114.447,114.447,0,0,0-16.96,15.69q-2.14,2.492-4.074,5.152l.666.391c3.256-6.281,7.841-11.713,12.645-16.853,1.355-1.45,2.731-2.882,4.108-4.314.29-.3-.109-.885-.467-.607a97.515,97.515,0,0,0-15.567,15.052q-1.959,2.373-3.767,4.867l.705.3a33.631,33.631,0,0,1,4.851-7.676q2.908-3.779,6.049-7.371,1.786-2.045,3.644-4.026a.386.386,0,0,0-.545-.547,121.846,121.846,0,0,0-13.727,13.549q-1.791,2.074-3.487,4.228l.606.468A157.315,157.315,0,0,1,227.342,9.678q1.784-1.937,3.631-3.814c.3-.3-.1-.861-.467-.607a74.8,74.8,0,0,0-13.067,11.867c-1.142,1.264-2.263,2.547-3.376,3.836l.545.547a116.812,116.812,0,0,1,12.022-13.26q1.842-1.742,3.759-3.4c.327-.284-.109-.862-.467-.607a91.95,91.95,0,0,0-13.669,11.88q-1.76,1.868-3.413,3.832l.606.468q4.924-6.985,10.452-13.51c.319-.377-.224-.927-.545-.547" transform="translate(-218.714 -10.47)" fill="#c33be3"/>
    </g>
  </g>
  <path id="Path_473" data-name="Path 473" d="M236.179,24.667c-.421-.331-.865-.636-1.262-.994-.716-.645-1.417-1.306-2.069-2.013a4.46,4.46,0,0,0,1.035-2.85,6.119,6.119,0,0,0-1.911-4.578,28.259,28.259,0,0,0-3.224-2.544,7.939,7.939,0,0,0-3.6-1.51,19.323,19.323,0,0,1-6.634-2.2,1.294,1.294,0,0,0-.393-.127c-.563-.094-.918.308-.7.835a6.5,6.5,0,0,0,.6,1.095,19.313,19.313,0,0,1,2.537,5.025c.375,1.256.856,2.481,1.28,3.723a8.713,8.713,0,0,0,2.3,3.43A5.588,5.588,0,0,0,228,23.274a18.007,18.007,0,0,0,1.831-.146,6.456,6.456,0,0,0,2.064-.6c.573.623,1.226,1.168,1.845,1.743a5.037,5.037,0,0,0,2.51,1.225c.1-.047.308-.081.342-.176s-.061-.282-.138-.4a1.1,1.1,0,0,0-.272-.247m-3.935-4.6c-.14.323-.279.42-.441.32-.074-.1-.155-.195-.226-.3a16.087,16.087,0,0,0-2.239-2.574c-.445-.43-.907-.842-1.381-1.243-.539-.462-1.086-.916-1.627-1.375-.114-.1-.328-.075-.5-.109V14.8c.031.134.019.3.1.394l.024.026c.009.015.01.037.021.051.655.759,1.327,1.5,2,2.244.574.632,1.178,1.238,1.724,1.891.1.122.2.243.292.369a15.042,15.042,0,0,1,.933,1.446c-.011.133-.1.251-.3.356a4.03,4.03,0,0,1-2.115.489,4.442,4.442,0,0,1-3.441-1.354,1.654,1.654,0,0,1-.383-.568c-.937-2.183-1.85-4.377-2.8-6.556-.406-.934-.878-1.838-1.308-2.761a2.1,2.1,0,0,1-.1-.471,1.662,1.662,0,0,1,.512-.04c1.6.391,3.219.729,4.785,1.229a18.239,18.239,0,0,1,2.643,1.3c.2.105.381.268.589.367a7.173,7.173,0,0,1,2.955,2.969,4.04,4.04,0,0,1,.272,3.892M246.366,8.8a5.967,5.967,0,0,0-5.07-5.558,11.606,11.606,0,0,0-2.148-.307,9.315,9.315,0,0,0-7.962,3.353,16.965,16.965,0,0,0-1.108,1.728c-.043-.017-.08-.019-.1-.039a1.013,1.013,0,0,1-.131-.189,6.931,6.931,0,0,0-4.385-3.522,11.712,11.712,0,0,0-5.629-.3,6.358,6.358,0,0,0-4.359,2.943,8,8,0,0,0-1.236,3.27,13.493,13.493,0,0,0,1.686,8.443,24.235,24.235,0,0,0,5.171,6.488,31.925,31.925,0,0,0,8.94,5.6,1.516,1.516,0,0,0,1.014-.017,15.551,15.551,0,0,0,1.722-.79,28.8,28.8,0,0,0,9.985-7.808,16.217,16.217,0,0,0,1.793-2.626A18.947,18.947,0,0,0,246.366,8.8m-3.347,10.239a13.354,13.354,0,0,1-2.376,3.348,28.29,28.29,0,0,1-9.663,7.025,1.083,1.083,0,0,1-.819.037,29.693,29.693,0,0,1-7.2-4.5c-2.776-2.546-5.27-5.293-6.577-8.937a11.6,11.6,0,0,1-.677-5.51,6.47,6.47,0,0,1,1.275-3.143,4.779,4.779,0,0,1,3.026-1.9,10.118,10.118,0,0,1,5.207.312,5.317,5.317,0,0,1,3.617,3.613c.135.458.31.907.487,1.351a.844.844,0,0,0,.778.629.882.882,0,0,0,.834-.628,4.39,4.39,0,0,0,.269-.884,6.343,6.343,0,0,1,4.779-5.02,8.916,8.916,0,0,1,5.47.053,4.43,4.43,0,0,1,3.34,3.856c.079.612.111,1.23.165,1.844a22.619,22.619,0,0,1-1.94,8.451" transform="translate(72.271 149.624)" fill="#6ec7de"/>
  <path id="Path_474" data-name="Path 474" d="M37.48,26.543a1.421,1.421,0,0,0-1.418-1.421H14.112a1.421,1.421,0,0,0-1.418,1.421v1.21a1.421,1.421,0,0,0,1.418,1.421h.938V40.742a4.25,4.25,0,0,0,4.24,4.25H22.1v0a.673.673,0,0,0,.28-1.286.655.655,0,0,0-.28-.057v0H19.29a2.9,2.9,0,0,1-2.9-2.9V29.175H33.781V40.742a2.9,2.9,0,0,1-2.9,2.9h-2.75v0a.671.671,0,1,0,0,1.343v0h2.75a4.25,4.25,0,0,0,4.24-4.25V29.175h.938a1.421,1.421,0,0,0,1.418-1.421Zm-1.343,1.21a.077.077,0,0,1-.075.075H14.112a.077.077,0,0,1-.075-.075v-1.21a.077.077,0,0,1,.075-.075h21.95a.077.077,0,0,1,.075.075Z" transform="translate(166.23 89.709)" fill="#f99b35"/>
  <path id="Path_475" data-name="Path 475" d="M15.1,16.432a.645.645,0,0,0,.935-.525h.01a9.85,9.85,0,0,1,19.525,0h.011a.663.663,0,0,0,.375.525.672.672,0,0,0,.891-.335.66.66,0,0,0,.043-.368H36.9a11.193,11.193,0,0,0-22.187,0h.01a.666.666,0,0,0,.376.7" transform="translate(165.445 97.099)" fill="#f99b35"/>
  <path id="Path_476" data-name="Path 476" d="M23.152,42.039V35.506h0a.447.447,0,1,0-.894,0h0v6.532h0a.447.447,0,1,0,.894,0Z" transform="translate(162.517 85.866)" fill="#f99b35"/>
  <path id="Path_477" data-name="Path 477" d="M22.7,49.558a.449.449,0,1,0,.447.449.449.449,0,0,0-.447-.449" transform="translate(162.517 80.256)" fill="#f99b35"/>
  <path id="Path_478" data-name="Path 478" d="M40.3,38.814a.59.59,0,1,0-.59.592.591.591,0,0,0,.59-.592" transform="translate(155.971 84.641)" fill="#f99b35"/>
  <path id="Path_479" data-name="Path 479" d="M11.494,48.58a.476.476,0,1,0,.475.476.475.475,0,0,0-.475-.476" transform="translate(166.88 80.634)" fill="#f99b35"/>
  <path id="Path_480" data-name="Path 480" d="M30.231,15.33a.475.475,0,1,0,.475-.476.475.475,0,0,0-.475.476" transform="translate(159.421 93.682)" fill="#f99b35"/>
  <path id="Path_481" data-name="Path 481" d="M54.255,44.621a1.567,1.567,0,1,0,1.564,1.567,1.567,1.567,0,0,0-1.564-1.567m0,2.237a.67.67,0,1,1,.668-.67.67.67,0,0,1-.668.67" transform="translate(150.701 82.166)" fill="#f99b35"/>
  <path id="Path_482" data-name="Path 482" d="M48.721,7.789a2.4,2.4,0,1,0-2.394-2.4,2.4,2.4,0,0,0,2.394,2.4m0-3.9a1.5,1.5,0,1,1-1.5,1.5,1.5,1.5,0,0,1,1.5-1.5" transform="translate(153.172 98.272)" fill="#f99b35"/>
  <path id="Path_483" data-name="Path 483" d="M60.612,14.088h-.834v-.836h0a.448.448,0,1,0-.9,0l0,.008v.828h-.834a.449.449,0,0,0,0,.9h.834v.828l0,.008a.448.448,0,1,0,.9,0h0v-.836h.834a.449.449,0,0,0,0-.9" transform="translate(148.795 94.475)" fill="#f99b35"/>
  <path id="Path_484" data-name="Path 484" d="M4.489,26.408a.592.592,0,1,0,.59.592.591.591,0,0,0-.59-.592M11.946,6.153a.592.592,0,1,0,.59.592.591.591,0,0,0-.59-.592M39.4,23.973a.8.8,0,1,0,.8.8.8.8,0,0,0-.8-.8M4.936,17.69a1.564,1.564,0,1,0-1.564,1.567A1.567,1.567,0,0,0,4.936,17.69m-1.564.67a.67.67,0,1,1,.668-.67.67.67,0,0,1-.668.67M21.116,36.367a.675.675,0,1,0,.332.893.672.672,0,0,0-.332-.893" transform="translate(170.456 97.048)" fill="#a287f4"/>
  <path id="Path_485" data-name="Path 485" d="M145.113,13.7a.579.579,0,1,0,.577.578.577.577,0,0,0-.577-.578M112.051,26.582a.578.578,0,1,0,.577.578.577.577,0,0,0-.577-.578M119.374,13.4h0a.438.438,0,1,0,.876,0h0V11.543h1.85a.439.439,0,0,0,0-.878h-1.85V8.812h0a.438.438,0,1,0-.876,0h0v1.853h-1.849a.439.439,0,0,0,0,.878h1.849Zm14.8,4.659h1.375v1.378a.439.439,0,1,0,.878,0V18.055H137.8a.44.44,0,0,0,0-.879h-1.377V15.8a.439.439,0,1,0-.878,0v1.377h-1.375a.44.44,0,0,0,0,.879m2.251-9.683a1.533,1.533,0,1,0-1.529-1.533,1.533,1.533,0,0,0,1.529,1.533m0-2.188a.655.655,0,1,1-.653.655.655.655,0,0,1,.653-.655m.777,24.672a8.684,8.684,0,0,0-6.579-8.016V6.181a.657.657,0,1,0-1.313,0V24.116a2.543,2.543,0,0,1-1.605,0V8.355h-.011A.528.528,0,0,0,127.7,8.3a.657.657,0,1,0-1.313,0,.528.528,0,0,0,.011.054h-.011V22.832a8.674,8.674,0,0,0-6.616,8.025,2.073,2.073,0,0,0-1.356,2.011v1.619c0,2.076,2.786,3.789,7.1,4.363v-.01a.607.607,0,0,0,.087.018.659.659,0,0,0,.657-.66.652.652,0,0,0-.573-.643v-.01c-3.869-.515-5.957-1.96-5.957-3.058V32.868a.836.836,0,0,1,.766-.854l.581-.069v-.663a7.366,7.366,0,0,1,5.313-7.091v.126c0,.744.85,1.245,2.116,1.245s2.116-.5,2.116-1.245V24.2a7.373,7.373,0,0,1,5.276,7.08l-.007.662.58.068a.839.839,0,0,1,.773.855v1.619c0,1.1-2,2.5-5.824,3.04v.009a.651.651,0,0,0-.574.643.659.659,0,0,0,.657.66.643.643,0,0,0,.1-.02l0,.012c4.225-.593,6.955-2.3,6.955-4.344V32.868a2.073,2.073,0,0,0-1.356-2.011m-8.741,3.22a18.633,18.633,0,0,0,6.441-1.045.44.44,0,0,0-.116-.857.431.431,0,0,0-.18.031,19.532,19.532,0,0,1-12.234.021h0a.436.436,0,1,0-.305.814l0,.007a18.719,18.719,0,0,0,6.4,1.028" transform="translate(118.33 97.375)" fill="#f99b35"/>
  <path id="Path_486" data-name="Path 486" d="M120.958,19.54h-.982v-.985h0a.437.437,0,1,0-.874,0h0v.985h-.982a.438.438,0,0,0,0,.876h.982V21.4h0a.437.437,0,1,0,.874,0h0v-.985h.982a.438.438,0,0,0,0-.876m24.719,6.09a.783.783,0,1,0,.781.783.782.782,0,0,0-.781-.783M128.8,0a.579.579,0,1,0,.577.578A.577.577,0,0,0,128.8,0m2.062,35.776a.66.66,0,1,0,.656.66.658.658,0,0,0-.656-.66" transform="translate(115.92 99.428)" fill="#a287f4"/>
  <path id="Path_487" data-name="Path 487" d="M247.681,25.323a14.789,14.789,0,0,1,0-7.837l.024-.072a7.358,7.358,0,0,0,.286-2.025v-.069a9.478,9.478,0,0,0-9.457-9.479H233.8a9.478,9.478,0,0,0-9.457,9.479v.055a7.4,7.4,0,0,0,.286,2.039l.023.069a14.783,14.783,0,0,1,0,7.84l-.026.074a7.1,7.1,0,0,0-.281,2v.01a9.465,9.465,0,0,0,.568,3.242l0,0a.71.71,0,0,0,1.373-.254.7.7,0,0,0-.046-.229l.008,0a8.037,8.037,0,0,1-.482-2.753v-.034a5.713,5.713,0,0,1,.213-1.532l.033-.094a15.968,15.968,0,0,0-.012-8.718l-.012-.035a6.043,6.043,0,0,1-.222-1.6v-.069a8.05,8.05,0,0,1,8.032-8.05h.088a8.05,8.05,0,0,1,8.032,8.05V15.4a6,6,0,0,1-.222,1.587l-.012.036a15.971,15.971,0,0,0-.011,8.717l.033.094a5.7,5.7,0,0,1,.212,1.53V27.4a8.05,8.05,0,0,1-8.032,8.05H233.8a7.981,7.981,0,0,1-4.429-1.334l0,.008a.7.7,0,0,0-.447-.17.712.712,0,0,0-.33,1.345l-.006.009a9.4,9.4,0,0,0,5.216,1.571h4.728a9.478,9.478,0,0,0,9.457-9.479v-.01a7.079,7.079,0,0,0-.281-2Zm-1.117,2.044V27.4a8.046,8.046,0,0,1-7.675,8.032,9.477,9.477,0,0,0,4.46-8.032v-.01a7.13,7.13,0,0,0-.281-2l-.027-.074a14.791,14.791,0,0,1,0-7.838l.023-.071a7.4,7.4,0,0,0,.287-2.025v-.069a9.475,9.475,0,0,0-4.46-8.032,8.045,8.045,0,0,1,7.675,8.032V15.4a6.026,6.026,0,0,1-.222,1.586l-.007.021a.843.843,0,1,0-.382,1.622,16.462,16.462,0,0,0,.365,7.111l.033.094a5.713,5.713,0,0,1,.213,1.53m-9.093-7.746a2.777,2.777,0,0,0,2.771,2.777.476.476,0,0,0,0-.952h0a1.825,1.825,0,0,1,0-3.65h0a.476.476,0,0,0,0-.952,2.777,2.777,0,0,0-2.771,2.778m.65-7.1a.778.778,0,1,0,.776.778.778.778,0,0,0-.776-.778m-.176,14.157a.628.628,0,1,0-.626-.627.627.627,0,0,0,.626.627m-7.4-8.252a.626.626,0,1,0-.626.627.627.627,0,0,0,.626-.627m12.177,14.138a.628.628,0,1,0,.626.627.627.627,0,0,0-.626-.627m1.576-20.513a.626.626,0,1,0-.626.628.627.627,0,0,0,.626-.628M229.29,28.5a.85.85,0,1,0,.848.849.848.848,0,0,0-.848-.849m2.994-2.815a2,2,0,1,0-2-2,2,2,0,0,0,2,2m0-3.047a1.048,1.048,0,1,1-1.045,1.048,1.048,1.048,0,0,1,1.045-1.048m21.1,7.927a1.663,1.663,0,1,0,1.659,1.662,1.663,1.663,0,0,0-1.659-1.662m0,2.373a.71.71,0,1,1,.709-.711.711.711,0,0,1-.709.711M249.342,1.887a2.546,2.546,0,1,0,2.541,2.546,2.546,2.546,0,0,0-2.541-2.546m0,4.14a1.594,1.594,0,1,1,1.591-1.594,1.594,1.594,0,0,1-1.591,1.594M244.9,24.847a1.5,1.5,0,0,0-1.094-.3h-.026v.008a.313.313,0,0,0-.294.308.317.317,0,0,0,.318.318c.023,0,.037-.02.059-.024l0,.019a.882.882,0,0,1,.237,1.749v.007a.314.314,0,0,0-.3.311.318.318,0,0,0,.318.318c.025,0,.04-.021.064-.026l0,.02a1.519,1.519,0,0,0,.713-2.711M230.94,16.1a3.426,3.426,0,1,0-.356-6.833v.006a.474.474,0,0,0,.028.947.425.425,0,0,0,.07-.014v.009a2.476,2.476,0,1,1-2.2,2.72h-.009a.471.471,0,0,0-.462-.408.477.477,0,0,0-.476.477c0,.01.005.019.006.029h0a3.426,3.426,0,0,0,3.4,3.067m4.008,18.5,0,0a.467.467,0,0,0,.353.165.476.476,0,0,0,.475-.476.469.469,0,0,0-.125-.316l0,0a2.455,2.455,0,1,1,3.665-3.269l0,0a.468.468,0,0,0,.359.172.474.474,0,0,0,.345-.8l0,0a.064.064,0,0,1-.009-.009l-.007-.006a3.405,3.405,0,0,0-5.068,4.549" transform="translate(62.799 98.698)" fill="#f99b35"/>
  <path id="Path_488" data-name="Path 488" d="M252.74,11.9a.628.628,0,1,0,.626.627.627.627,0,0,0-.626-.627M217.894,26.06a.628.628,0,1,0,.626.628.627.627,0,0,0-.626-.628m7.76-23.172a.628.628,0,1,0,.626.628.628.628,0,0,0-.626-.628M223.26,32.5a.714.714,0,1,0,.712.714.714.714,0,0,0-.712-.714m23.665-8.208a.85.85,0,1,0,.848.85.849.849,0,0,0-.848-.85M218.3,21.516a1.659,1.659,0,1,0-1.659,1.663,1.663,1.663,0,0,0,1.659-1.663m-1.659.711a.71.71,0,1,1,.709-.711.711.711,0,0,1-.709.711" transform="translate(66.434 98.311)" fill="#a287f4"/>
  <path id="Path_489" data-name="Path 489" d="M5.564,19.334H3.339A3.346,3.346,0,0,1,0,15.988V11.526A3.346,3.346,0,0,1,3.339,8.18H7.048A1.115,1.115,0,0,0,8.161,7.064V3.346A3.346,3.346,0,0,1,11.5,0h4.452A3.346,3.346,0,0,1,19.29,3.346V5.577a1.113,1.113,0,1,1-2.226,0V3.346a1.116,1.116,0,0,0-1.113-1.115H11.5a1.116,1.116,0,0,0-1.113,1.115V7.064a3.346,3.346,0,0,1-3.339,3.346H3.339a1.115,1.115,0,0,0-1.113,1.115v4.462A1.115,1.115,0,0,0,3.339,17.1H5.564a1.115,1.115,0,0,1,0,2.231" transform="translate(2.584 104.975)" fill="#7cacfc"/>
  <path id="Path_490" data-name="Path 490" d="M111.787,29.57a4.132,4.132,0,0,1-4.113-3.943,35.922,35.922,0,0,0-2.529-12.089c-.2-.523-.374-1-.519-1.436l-.205-.549a7.811,7.811,0,0,1,7.4-10.24,7.7,7.7,0,0,1,3.384.774,1.115,1.115,0,0,1-.968,2.009,5.5,5.5,0,0,0-2.417-.552,5.583,5.583,0,0,0-5.3,7.279l.2.536c.151.452.319.9.5,1.394a38.388,38.388,0,0,1,2.668,12.76,1.892,1.892,0,0,0,3.782-.071V22.278a1.113,1.113,0,1,1,2.226,0v3.165a4.126,4.126,0,0,1-4.117,4.127" transform="translate(-47.734 104.406)" fill="#7cacfc"/>
  <path id="Path_491" data-name="Path 491" d="M227.113,25.677a11.51,11.51,0,1,1,11.255-9.2,1.113,1.113,0,1,1-2.181-.448,9.275,9.275,0,1,0-3.122,5.247A1.114,1.114,0,0,1,234.5,22.98a11.474,11.474,0,0,1-7.386,2.7" transform="translate(-99.521 103.837)" fill="#7cacfc"/>
  <path id="Path_492" data-name="Path 492" d="M22.23,34.517H17.779a3.346,3.346,0,0,1-3.339-3.346V28.94a1.113,1.113,0,1,1,2.226,0v2.231a1.115,1.115,0,0,0,1.113,1.115H22.23a1.115,1.115,0,0,0,1.113-1.115V26.709a3.346,3.346,0,0,1,3.339-3.346h4.451a1.115,1.115,0,0,0,1.113-1.115V17.786a1.115,1.115,0,0,0-1.113-1.115H28.907a1.115,1.115,0,0,1,0-2.231h2.226a3.346,3.346,0,0,1,3.339,3.346v4.462a3.346,3.346,0,0,1-3.339,3.346H26.681a1.115,1.115,0,0,0-1.113,1.115v4.462a3.346,3.346,0,0,1-3.339,3.346" transform="translate(-3.695 98.715)" fill="#04e474"/>
  <path id="Path_493" data-name="Path 493" d="M134.176,29.57a4.126,4.126,0,0,1-4.117-4.127V22.134a2.241,2.241,0,0,0-.729-1.651,2.206,2.206,0,0,0-1.719-.569,1.115,1.115,0,0,1-.211-2.221,4.456,4.456,0,0,1,4.886,4.441v3.309a1.892,1.892,0,0,0,3.782.071,38.388,38.388,0,0,1,2.668-12.76c.185-.495.353-.942.492-1.357l.286-.817a5.567,5.567,0,1,0-10.937-1.458,1.113,1.113,0,1,1-2.226,0,7.79,7.79,0,1,1,15.3,2.087.663.663,0,0,1-.023.072l-.293.838c-.14.423-.317.9-.514,1.42a35.922,35.922,0,0,0-2.529,12.089,4.132,4.132,0,0,1-4.113,3.943" transform="translate(-57.437 104.406)" fill="#04e474"/>
  <path id="Path_494" data-name="Path 494" d="M241.658,18.279a.743.743,0,0,1-.742-.744,6.462,6.462,0,0,0-6.436-6.474.743.743,0,0,1,0-1.487,7.95,7.95,0,0,1,7.92,7.961.743.743,0,0,1-.742.744" transform="translate(-107.396 100.825)" fill="#04e474"/>
  <path id="Path_495" data-name="Path 495" d="M255.153,42.92a3.579,3.579,0,0,1-2.555-1.064l-1.922-1.933a1.114,1.114,0,0,1,1.576-1.575l1.922,1.933a1.392,1.392,0,1,0,1.958-1.979l-5.805-5.837a1.114,1.114,0,0,1,1.577-1.575l5.8,5.837a3.645,3.645,0,0,1,0,5.129,3.579,3.579,0,0,1-2.555,1.064" transform="translate(-114.468 91.726)" fill="#04e474"/>
  <g id="Group_50" data-name="Group 50" transform="translate(235.222 49.875)">
    <g id="Group_49" data-name="Group 49" transform="translate(0 0)" clip-path="url(#clip-path-5)">
      <path id="Path_496" data-name="Path 496" d="M23.365,30.919H20.812a1.253,1.253,0,0,0-1.251,1.254h0v2.072l0,0V32.173a1.254,1.254,0,0,1,1.252-1.255H23.37V19.035l-10.98-11a.8.8,0,0,0-.483-.228V7.8h-.4a.806.806,0,0,0-.534.236L0,19.035V33.441a.815.815,0,0,0,.814.816H11.683v-.005h7.874l0,0v0l3.809-3.333ZM11.683,17.314h0a2.393,2.393,0,0,1,0-4.786h0a2.393,2.393,0,0,1,0,4.786" transform="translate(0 0.02)" fill="#f2f2f2"/>
      <path id="Path_497" data-name="Path 497" d="M11.683,17.315a2.393,2.393,0,0,1,0-4.786V7.8h-.172a.806.806,0,0,0-.534.236L0,19.035V33.441a.815.815,0,0,0,.814.816H11.683Z" transform="translate(0 0.02)" fill="#f2f2f2"/>
      <path id="Path_498" data-name="Path 498" d="M23.363,30.859H20.805a1.253,1.253,0,0,0-1.251,1.254h0v2.077Z" transform="translate(0.006 0.08)" fill="#f2f2f2"/>
      <path id="Path_499" data-name="Path 499" d="M12.386,8.035a.8.8,0,0,0-.483-.228V7.8h-.224v4.727a2.393,2.393,0,0,1,0,4.786V34.252h7.874l3.809-3.335L19.553,34.25V32.173A1.254,1.254,0,0,1,20.8,30.918h2.561V19.035Z" transform="translate(0.004 0.02)" fill="#d6d7d8"/>
      <path id="Path_500" data-name="Path 500" d="M15.224,5.8H9.3A1.451,1.451,0,0,1,7.855,4.352V4.114A1.451,1.451,0,0,1,9.3,2.662h.781A2.268,2.268,0,0,0,12.344.4V.388a.407.407,0,0,0-.813,0V.4a1.452,1.452,0,0,1-1.448,1.452H9.3A2.268,2.268,0,0,0,7.039,4.114v.239A2.268,2.268,0,0,0,9.3,6.62h5.923a1.452,1.452,0,0,1,1.448,1.452v.238a1.452,1.452,0,0,1-1.448,1.452H13.439a2.267,2.267,0,0,0-2.263,2.268v1.658a.4.4,0,1,0,.808,0V12.028a1.452,1.452,0,0,1,1.448-1.452h1.785A2.267,2.267,0,0,0,17.48,8.308V8.071A2.267,2.267,0,0,0,15.218,5.8" transform="translate(0.002 0)" fill="#6c75e2"/>
      <path id="Path_501" data-name="Path 501" d="M11.7,20.6h-.032a.364.364,0,0,0-.387.34v.728A2.17,2.17,0,0,0,9.027,23.7c0,1.4,1.294,1.778,2.256,2.043v2.576a3.093,3.093,0,0,1-1.647-.757.426.426,0,0,0-.287-.108.491.491,0,0,0-.453.5.467.467,0,0,0,.154.356,3.641,3.641,0,0,0,2.232.9V29.9a.365.365,0,0,0,.372.357h.016a.171.171,0,0,0,.032,0Zm-.42,4.071c-.768-.231-1.242-.487-1.242-1.022,0-.594.5-1.031,1.242-1.1Z" transform="translate(0.003 0.053)" fill="#ee907a"/>
      <path id="Path_502" data-name="Path 502" d="M12.024,24.865V22.584a2.465,2.465,0,0,1,1.277.583.45.45,0,0,0,.287.107.475.475,0,0,0,.463-.486.43.43,0,0,0-.155-.346,3.225,3.225,0,0,0-1.873-.767v-.724a.356.356,0,0,0-.346-.355v9.646a.356.356,0,0,0,.346-.355v-.682c2.133-.183,2.3-1.7,2.3-2.157,0-1.4-1.131-1.852-2.3-2.184m0,3.453V25.951c.773.239,1.285.534,1.285,1.173,0,.5-.338,1.077-1.285,1.193" transform="translate(0.004 0.053)" fill="#ee907a"/>
    </g>
  </g>
</svg>
